<?xml version="1.0" encoding="UTF-8"?>
<svg id="Livello_2" data-name="Livello 2" xmlns="http://www.w3.org/2000/svg" viewBox="0 0 595.28 841.89">
  <defs>
    <style>
      .cls-1 {
        fill: none;
        stroke: #007AFF;
        stroke-linecap: round;
        stroke-miterlimit: 10;
        stroke-width: 58px;
      }

      .cls-2 {
        fill: #007AFF;
        stroke-width: 0px;
      }
    </style>
  </defs>
  <line class="cls-1" x1="244.03" y1="369.32" x2="350.47" y2="369.32"/>
  <line class="cls-1" x1="244.03" y1="453.65" x2="350.47" y2="453.65"/>
  <path class="cls-2" d="m545.36,412.45h.28c-.09-.09-.18-.19-.28-.29,0-.23.01-.46,0-.69-.26-20.4-12.91-39.54-22.09-52.6-10.57-15.03-23.66-36.05-24.12-56.82-.03-1.47-.02-1.18,0-2.65.12-21.37,11.74-41.35,23.85-56.95,9.78-12.59,22.88-33.63,22.63-55.23-.47-40.95-33.71-74.6-74.64-75.57-43.09-1.02-78.34,33.61-78.34,76.48h-.04s.03.03.04.04c.01,20.95,11.14,39.39,22.09,53.74,11.78,15.43,24.2,35.7,24.35,57.25,0,.78,0,1.56,0,2.34-.16,21.55-14.59,43.3-24.39,57.22-10.89,15.48-22.1,32.77-22.1,53.72s8.39,39.83,21.99,53.62c15.01,15.22,24.01,35.43,24.12,56.81,0,.38,0,.77,0,1.15-.04,21.55-12.4,42.24-24.14,57.31-8.95,11.5-22.03,32.85-21.97,53.83.12,41.15,33.4,75.17,74.54,76.14,43.03,1.02,78.23-33.56,78.23-76.36,0-21.19-13.73-42.38-22.56-54.2-12.69-16.97-23.47-35.3-23.55-56.49,0-.19,0-.37,0-.56,0-21.6,8.9-42.21,24.08-57.58,13.62-13.79,22.02-32.75,22.02-53.67Z"/>
  <path class="cls-2" d="m202.39,412.45h.28c-.09-.09-.18-.19-.28-.29,0-.23.01-.46,0-.69-.26-20.4-12.91-39.54-22.09-52.6-10.57-15.03-23.66-36.05-24.12-56.82-.03-1.47-.02-1.18,0-2.65.12-21.37,11.74-41.35,23.85-56.95,9.78-12.59,22.88-33.63,22.63-55.23-.47-40.95-33.71-74.6-74.64-75.57-43.09-1.02-78.34,33.61-78.34,76.48h-.04s.03.03.04.04c.01,20.95,11.14,39.39,22.09,53.74,11.78,15.43,24.2,35.7,24.35,57.25,0,.78,0,1.56,0,2.34-.16,21.55-14.59,43.3-24.39,57.22-10.89,15.48-22.1,32.77-22.1,53.72s8.39,39.83,21.99,53.62c15.01,15.22,24.01,35.43,24.12,56.81,0,.38,0,.77,0,1.15-.04,21.55-12.4,42.24-24.14,57.31-8.95,11.5-22.03,32.85-21.97,53.83.12,41.15,33.4,75.17,74.54,76.14,43.03,1.02,78.23-33.56,78.23-76.36,0-21.19-13.73-42.38-22.56-54.2-12.69-16.97-23.47-35.3-23.55-56.49,0-.19,0-.37,0-.56,0-21.6,8.9-42.21,24.08-57.58,13.62-13.79,22.02-32.75,22.02-53.67Z"/>
</svg>